# xmcd CD database file
#
# Track frame offsets:
#	150
#	25915
#	57059
#	84694
#	119177
#	146602
#
# Disc length: 2296 seconds
#
# Revision: 2
# Processed by: cddbd v1.5.1PL2 Copyright (c) Steve Scherf et al.
# Submitted via: CDex 1.60beta1-cs1
#
DISCID=5208f606
DTITLE=McCoy Tyner - Tender Moments
DYEAR=1967
DGENRE=Jazz
TTITLE0=Mode To John
TTITLE1=Man From Tanganyika
TTITLE2=The High Priest
TTITLE3=Utopia
TTITLE4=All My Yesterdays
TTITLE5=Lee Plus Three
EXTD=YEAR: 1967
EXTT0=
EXTT1=
EXTT2=
EXTT3=
EXTT4=
EXTT5=
PLAYORDER=
